<?xml version="1.0" encoding="UTF-8"?>
<svg version="1.1" xmlns="http://www.w3.org/2000/svg" width="540" height="540">
<path d="M0 0 C1.76376423 -0.00807831 1.76376423 -0.00807831 3.56316006 -0.01631981 C6.80954184 -0.02811318 10.05559245 -0.02654596 13.30197692 -0.019153 C16.80992346 -0.01441083 20.31781567 -0.02694046 23.82574463 -0.03717041 C30.69146481 -0.05434355 37.55709341 -0.05520148 44.42282949 -0.04995751 C50.00513312 -0.04591162 55.58740973 -0.04736434 61.16971207 -0.05270576 C61.96504496 -0.05345419 62.76037784 -0.05420261 63.57981173 -0.05497371 C65.19567815 -0.05650523 66.81154457 -0.05804358 68.42741098 -0.05958868 C83.57198119 -0.07330848 98.71649971 -0.06787981 113.86106874 -0.05640347 C127.70515559 -0.04647276 141.54910876 -0.05940985 155.39317499 -0.08333766 C169.62034658 -0.10774167 183.84745593 -0.11733326 198.07464802 -0.11068493 C206.0572906 -0.10719546 214.0398304 -0.10940673 222.02245712 -0.12693596 C228.81824861 -0.14167429 235.61386494 -0.14227221 242.40965305 -0.12486505 C245.87426308 -0.11636578 249.33856045 -0.11417873 252.80315399 -0.1295166 C256.56551536 -0.14271554 260.32703032 -0.13118685 264.08935547 -0.11352539 C265.17536321 -0.1231304 266.26137094 -0.1327354 267.380288 -0.14263147 C275.23004313 -0.06696837 282.28652622 1.32379298 288.57400513 6.2822113 C293.89395384 12.92876301 297.77027975 19.54260906 296.99197388 28.44236755 C296.2127029 32.91124807 294.66569898 36.56564338 292.45681763 40.5165863 C291.91935913 41.48257751 291.38190063 42.44856873 290.82815552 43.4438324 C290.00819092 44.90103699 290.00819092 44.90103699 289.17166138 46.38768005 C288.68238159 47.26504822 288.19310181 48.14241638 287.68899536 49.04637146 C286.19079834 51.72698509 284.68305028 54.40198323 283.17166138 57.07518005 C282.61261108 58.06429382 282.05356079 59.05340759 281.47756958 60.07249451 C276.92416658 68.10571335 272.28241822 76.08510207 267.61502075 84.05247498 C263.08134827 91.80123946 258.61572637 99.58736737 254.17166138 107.38768005 C248.63197238 117.10902104 243.03791075 126.79663098 237.38821411 136.45457458 C231.23399396 146.9785263 225.14796142 157.54148143 219.06277466 168.10545349 C215.93485989 173.53427948 212.8030769 178.96087286 209.67166138 184.38768005 C208.42164259 186.55433588 207.17164259 188.72100255 205.92166138 190.88768005 C194.67166138 210.38768005 194.67166138 210.38768005 183.42166138 229.88768005 C182.80226685 230.96146912 182.18287231 232.03525818 181.54470825 233.1415863 C180.30182048 235.2955795 179.05833645 237.44922877 177.8142395 239.6025238 C174.91659914 244.61942475 172.02453256 249.63925219 169.1546936 254.67210388 C168.14688115 256.43883829 167.13710358 258.20443508 166.1267395 259.9697113 C164.86633416 262.17321714 163.6095444 264.37879696 162.35720825 266.5868988 C150.85112252 286.66791099 150.85112252 286.66791099 139.10916138 291.70018005 C132.23319344 293.30944915 125.53478153 292.39879941 119.17166138 289.38768005 C112.69895295 285.13924361 109.35830811 279.28668567 105.67166138 272.63768005 C105.07345581 271.58564392 104.47525024 270.53360779 103.85891724 269.44969177 C102.59338503 267.22386813 101.33298384 264.99512024 100.0774231 262.76365662 C97.61555058 258.40255321 95.10871679 254.06828172 92.59939575 249.73435974 C90.714135 246.47809 88.8346626 243.2185438 86.95681763 239.95799255 C83.19810757 233.43281763 79.43524387 226.91004555 75.67166138 220.38768005 C74.42164259 218.22102423 73.17164259 216.05435756 71.92166138 213.88768005 C71.30291138 212.81518005 70.68416138 211.74268005 70.04666138 210.63768005 C48.17166138 172.72101339 26.29666138 134.80434672 4.42166138 96.88768005 C3.80242798 95.81437439 3.18319458 94.74106873 2.54519653 93.63523865 C1.29996654 91.47677508 0.05484866 89.31824682 -1.19015503 87.15965271 C-5.04327511 80.47949872 -8.90082266 73.80192392 -12.76119995 67.1259613 C-14.65379115 63.84848344 -16.54039006 60.56761853 -18.42599487 57.28611755 C-20.49197158 53.69236458 -22.5783569 50.11322178 -24.69943237 46.55174255 C-29.63487964 38.19514376 -33.99699592 30.69101886 -32.20333862 20.70018005 C-30.13176233 13.29983205 -26.43342893 7.52180133 -19.82833862 3.38768005 C-13.09038516 0.29148629 -7.35763152 -0.04055108 0 0 Z M60.17166138 50.38768005 C65.6384405 61.45572365 65.6384405 61.45572365 71.67166138 72.13768005 C72.53351679 73.5809875 73.39410769 75.02505049 74.25369263 76.4697113 C74.71727173 77.24782166 75.18085083 78.02593201 75.65847778 78.82762146 C78.59939467 83.80317075 81.47535699 88.81638902 84.35916138 93.82518005 C84.99660278 94.93151794 85.63404419 96.03785583 86.290802 97.17771912 C87.59945767 99.44923682 88.90788687 101.72088502 90.21609497 103.99266052 C93.36498191 109.45937985 96.51849401 114.92342892 99.67166138 120.38768005 C100.92168488 122.55433316 102.17168485 124.72099985 103.42166138 126.88768005 C104.04041138 127.96018005 104.65916138 129.03268005 105.29666138 130.13768005 C125.92166138 165.88768005 125.92166138 165.88768005 127.79934692 169.14280701 C129.0398495 171.29269874 130.28089093 173.44227964 131.52249146 175.59153748 C134.4470952 180.65564484 137.36619904 185.72268907 140.26599121 190.80104065 C141.6323001 193.19305123 143.00171424 195.58327714 144.37136841 197.97337341 C145.33387152 199.65596968 146.29189069 201.34112842 147.24978638 203.02635193 C147.83630981 204.04922302 148.42283325 205.07209412 149.02713013 206.1259613 C149.53912964 207.02355164 150.05112915 207.92114197 150.5786438 208.84593201 C152.26400946 211.53502655 154.14529217 213.94819158 156.17166138 216.38768005 C163.95229725 203.24298227 171.59359594 190.01958947 179.21609497 176.78269958 C182.36498191 171.31598026 185.51849401 165.85193118 188.67166138 160.38768005 C189.92168488 158.22102694 191.17168485 156.05436026 192.42166138 153.88768005 C203.67166138 134.38768005 203.67166138 134.38768005 214.92166138 114.88768005 C215.54081421 113.81445496 216.15996704 112.74122986 216.79788208 111.63548279 C218.04371907 109.47608611 219.28964956 107.31674336 220.53567505 105.15745544 C223.72515091 99.63000409 226.91283023 94.10152884 230.09744263 88.5712738 C231.39297795 86.32255423 232.68855034 84.07385601 233.98416138 81.82518005 C234.91530762 80.20772888 234.91530762 80.20772888 235.86526489 78.55760193 C238.66282507 73.70526272 241.47286288 68.861987 244.33572388 64.0478363 C244.80905151 63.25127625 245.28237915 62.45471619 245.77005005 61.63401794 C246.63591658 60.18154066 247.50561674 58.73133888 248.37991333 57.28392029 C250.47612144 54.06135584 250.47612144 54.06135584 251.17166138 50.38768005 C188.14166138 50.38768005 125.11166138 50.38768005 60.17166138 50.38768005 Z " fill="#BE172F" transform="translate(137.82833862304688,149.61231994628906)"/>
</svg>
